<?xml version="1.0" encoding="UTF-8" standalone="no"?>
<!DOCTYPE svg PUBLIC "-//W3C//DTD SVG 1.1//EN" "http://www.w3.org/Graphics/SVG/1.1/DTD/svg11.dtd">
<svg xmlns="http://www.w3.org/2000/svg" version="1.1" viewBox="0 0 866 178">
<g stroke-width="2.00" fill="none" stroke-linecap="butt">
<path stroke="#6a2c1b" vector-effect="non-scaling-stroke" d="
  M 18.04 88.50
  Q 17.61 91.14 18.71 93.50"
/>
<path stroke="#6d5f36" vector-effect="non-scaling-stroke" d="
  M 18.71 93.50
  L 20.56 110.15
  A 1.00 1.00 0.0 0 1 19.58 111.26
  Q 16.84 111.30 16.13 114.12
  A 1.02 1.01 -60.1 0 0 16.38 115.06
  L 21.77 120.71
  A 1.00 1.00 0.0 0 1 21.76 122.10
  L 16.41 127.52
  A 1.00 1.00 0.0 0 0 16.17 128.52
  Q 21.97 146.90 28.97 164.84
  A 1.01 1.00 79.2 0 0 29.90 165.48
  C 33.84 165.49 39.70 166.30 43.36 164.52
  Q 47.64 162.44 51.88 160.21
  A 1.01 0.94 -88.0 0 0 52.31 159.78
  Q 53.46 157.51 54.17 155.11
  Q 55.36 151.08 55.43 155.28
  L 55.54 162.75
  Q 55.58 165.51 58.00 165.51
  L 131.50 165.52
  Q 134.04 165.52 134.01 163.01
  Q 133.95 158.03 134.18 153.07
  Q 134.25 151.39 134.54 152.55
  Q 135.44 156.12 136.96 159.59
  A 0.96 0.94 3.1 0 0 137.39 160.06
  Q 141.65 162.43 146.05 164.51
  C 149.80 166.30 155.61 165.49 159.59 165.48
  A 1.01 1.01 0.0 0 0 160.53 164.84
  Q 163.50 157.08 166.42 149.30
  C 168.64 143.41 170.82 135.51 173.76 128.78
  A 1.01 1.00 33.9 0 0 173.53 127.65
  L 167.84 122.24
  A 1.00 1.00 0.0 0 1 167.80 120.82
  C 169.22 119.36 177.20 112.55 171.00 111.46"
/>
<path stroke="#6a2c1b" vector-effect="non-scaling-stroke" d="
  M 171.00 111.46
  C 167.82 111.32 169.73 106.53 169.46 104.25"
/>
<path stroke="#6d5f36" vector-effect="non-scaling-stroke" d="
  M 169.46 104.25
  Q 170.52 92.91 172.79 81.76
  Q 173.09 80.31 173.26 76.57
  A 0.97 0.95 30.4 0 0 173.10 75.98
  C 170.08 71.29 166.14 59.79 158.67 68.18
  A 1.01 1.00 -31.8 0 0 158.45 69.09
  C 158.61 69.71 161.24 77.45 160.34 77.21
  A 0.42 0.40 84.9 0 1 160.07 76.97
  C 156.89 69.34 146.82 72.18 149.58 79.42
  Q 151.16 83.55 152.78 87.66
  A 1.00 1.00 0.0 0 1 151.78 89.03
  L 148.75 88.80
  A 0.99 0.98 79.0 0 1 147.93 88.24
  C 144.77 81.82 147.95 75.59 139.30 72.73
  A 0.99 0.98 89.3 0 1 138.67 72.11
  Q 137.03 67.35 132.41 65.50
  A 1.01 1.01 0.0 0 1 131.78 64.55
  Q 131.90 55.97 131.52 53.46
  Q 130.17 44.63 122.25 41.38
  A 1.01 1.00 25.6 0 1 121.75 39.97
  L 126.68 31.03
  A 0.98 0.98 0.0 0 0 126.70 30.10
  L 121.25 19.14
  A 1.02 1.01 85.3 0 0 120.67 18.64
  C 116.67 17.32 113.31 16.19 109.84 13.58
  Q 106.61 11.16 103.39 8.70
  A 1.01 0.95 -24.9 0 0 102.79 8.50
  L 86.71 8.50
  A 1.00 0.99 -63.7 0 0 86.10 8.71
  C 82.49 11.50 78.60 15.06 74.34 16.67
  Q 71.64 17.69 68.84 18.58
  A 0.98 0.97 5.0 0 0 68.24 19.08
  L 62.79 30.02
  A 1.02 1.01 44.7 0 0 62.80 30.94
  L 67.71 40.02
  A 1.01 0.99 64.1 0 1 67.24 41.41
  Q 58.31 45.38 58.11 55.25
  Q 58.02 59.83 57.98 64.52
  A 0.99 0.99 0.0 0 1 57.31 65.46
  Q 52.49 67.10 50.99 71.94
  A 1.02 1.00 -1.4 0 1 50.37 72.58
  Q 43.59 75.02 43.25 82.00
  Q 43.15 84.18 42.68 85.39
  Q 42.14 86.81 41.47 88.18
  A 0.99 0.99 0.0 0 1 40.69 88.73
  L 37.77 89.08
  A 1.00 0.99 7.5 0 1 36.72 87.72
  L 40.21 78.98
  Q 41.32 76.20 39.34 74.19
  Q 35.54 70.32 31.67 74.19
  Q 31.25 74.61 30.84 75.05
  Q 28.76 77.32 29.47 74.33
  Q 29.65 73.58 29.90 72.84
  C 31.72 67.41 28.60 63.62 22.68 66.14
  A 0.99 0.96 -84.7 0 0 22.21 66.54
  L 16.32 76.30
  A 0.98 0.97 56.1 0 0 16.19 76.97
  L 18.04 88.50"
/>
<path stroke="#cb7d44" vector-effect="non-scaling-stroke" d="
  M 169.46 104.25
  Q 168.57 107.32 168.76 110.49
  A 0.99 0.98 -85.9 0 0 169.55 111.41
  Q 170.26 111.56 171.00 111.46"
/>
<path stroke="#cb7d44" vector-effect="non-scaling-stroke" d="
  M 18.71 93.50
  L 18.04 88.50"
/>
<path stroke="#6a2c1b" vector-effect="non-scaling-stroke" d="
  M 367.85 76.48
  C 364.20 70.91 381.34 66.95 383.78 76.26
  A 1.01 1.00 -7.5 0 0 384.75 77.00
  L 395.14 76.99
  A 1.00 1.00 0.0 0 0 396.13 75.89
  Q 395.76 72.16 394.13 68.92
  C 385.32 51.44 350.25 57.41 357.22 79.36
  C 360.16 88.65 370.37 89.17 378.26 92.11
  C 382.90 93.84 389.98 98.73 380.96 102.20
  Q 373.46 105.08 367.76 99.13
  A 1.01 1.00 -66.5 0 1 367.48 98.41
  L 367.50 97.77
  A 1.00 1.00 0.0 0 0 366.50 96.75
  L 356.07 96.75
  A 1.00 0.99 -3.1 0 0 355.08 97.85
  C 356.82 114.59 375.68 119.10 388.79 112.01
  C 398.76 106.61 400.43 93.24 391.27 86.27
  C 386.68 82.79 377.54 80.77 371.09 78.88
  Q 369.03 78.28 367.85 76.48"
/>
<path stroke="#6a3b1e" vector-effect="non-scaling-stroke" d="
  M 538.38 60.90
  C 512.10 50.07 487.91 79.73 504.11 103.21
  C 512.47 115.33 528.98 119.09 541.66 111.42
  Q 550.28 106.21 554.03 96.86
  A 1.00 1.00 0.0 0 0 553.10 95.49
  L 541.74 95.51
  A 1.00 1.00 0.0 0 0 540.97 95.87
  C 534.35 103.90 524.61 106.04 516.88 99.27
  C 499.03 83.64 525.21 58.70 540.04 77.13
  A 1.01 1.00 -19.3 0 0 540.82 77.50
  L 552.57 77.50
  A 1.00 1.00 0.0 0 0 553.48 76.09
  Q 548.56 65.09 538.38 60.90"
/>
<path stroke="#6b4b22" vector-effect="non-scaling-stroke" d="
  M 639.89 61.25
  C 608.26 47.15 583.56 90.61 612.14 110.30
  Q 621.94 117.05 632.56 115.09
  Q 648.39 112.17 654.70 96.88
  A 1.00 1.00 0.0 0 0 653.77 95.50
  L 642.18 95.50
  A 1.01 0.99 -72.8 0 0 641.35 95.95
  C 633.38 108.06 616.04 104.37 612.11 90.79
  C 609.91 83.20 615.09 74.49 622.12 71.85
  C 628.92 69.29 636.20 71.50 640.79 77.13
  A 1.01 1.00 -19.3 0 0 641.57 77.50
  L 653.17 77.50
  A 1.00 1.00 0.0 0 0 654.09 76.10
  Q 649.46 65.52 639.89 61.25"
/>
<path stroke="#6b4b22" vector-effect="non-scaling-stroke" d="
  M 726.02 87.01
  A 28.37 28.37 0.0 0 0 697.65 58.64
  A 28.37 28.37 0.0 0 0 669.28 87.01
  A 28.37 28.37 0.0 0 0 697.65 115.38
  A 28.37 28.37 0.0 0 0 726.02 87.01"
/>
<path stroke="#6a2c1b" vector-effect="non-scaling-stroke" d="
  M 481.51 59.72
  A 0.26 0.26 0.0 0 0 481.25 59.46
  L 469.75 59.46
  A 0.26 0.26 0.0 0 0 469.49 59.72
  L 469.49 114.26
  A 0.26 0.26 0.0 0 0 469.75 114.52
  L 481.25 114.52
  A 0.26 0.26 0.0 0 0 481.51 114.26
  L 481.51 59.72"
/>
<path stroke="#691d19" vector-effect="non-scaling-stroke" d="
  M 320.23 78.64
  A 0.34 0.34 0.0 0 1 319.67 78.64
  L 307.04 59.65
  A 0.34 0.34 0.0 0 0 306.76 59.50
  L 295.42 59.50
  A 0.34 0.34 0.0 0 0 295.14 60.03
  L 313.92 88.24
  A 0.34 0.34 0.0 0 1 313.98 88.43
  L 314.01 114.16
  A 0.34 0.34 0.0 0 0 314.35 114.50
  L 325.70 114.50
  A 0.34 0.34 0.0 0 0 326.04 114.16
  L 325.98 88.50
  A 0.34 0.34 0.0 0 1 326.04 88.31
  L 344.85 60.03
  A 0.34 0.34 0.0 0 0 344.57 59.50
  L 333.29 59.50
  A 0.34 0.34 0.0 0 0 333.01 59.65
  L 320.23 78.64"
/>
<path stroke="#6a2c1b" vector-effect="non-scaling-stroke" d="
  M 437.99 70.41
  A 0.41 0.41 0.0 0 1 438.40 70.00
  L 453.84 70.00
  A 0.41 0.41 0.0 0 0 454.25 69.59
  L 454.25 59.91
  A 0.41 0.41 0.0 0 0 453.84 59.50
  L 410.16 59.50
  A 0.41 0.41 0.0 0 0 409.75 59.91
  L 409.75 69.59
  A 0.41 0.41 0.0 0 0 410.16 70.00
  L 425.59 70.00
  A 0.41 0.41 0.0 0 1 426.00 70.41
  L 426.00 114.09
  A 0.41 0.41 0.0 0 0 426.41 114.50
  L 437.61 114.50
  A 0.41 0.41 0.0 0 0 438.02 114.09
  L 437.99 70.41"
/>
<path stroke="#6c5524" vector-effect="non-scaling-stroke" d="
  M 743.24 60.52
  L 743.24 113.46
  A 1.00 1.00 0.0 0 0 744.24 114.46
  Q 753.07 114.47 761.90 114.53
  Q 770.94 114.58 775.45 113.24
  C 802.95 105.05 800.41 64.67 772.44 59.97
  Q 770.17 59.59 758.03 59.50
  Q 751.07 59.45 744.23 59.52
  A 1.00 1.00 0.0 0 0 743.24 60.52"
/>
<path stroke="#6c5524" vector-effect="non-scaling-stroke" d="
  M 824.63 81.75
  A 0.34 0.34 0.0 0 1 824.29 81.41
  L 824.17 70.34
  A 0.34 0.34 0.0 0 1 824.51 70.00
  L 849.47 70.00
  A 0.34 0.34 0.0 0 0 849.81 69.66
  L 849.72 59.84
  A 0.34 0.34 0.0 0 0 849.38 59.50
  L 812.34 59.50
  A 0.34 0.34 0.0 0 0 812.00 59.84
  L 812.00 114.16
  A 0.34 0.34 0.0 0 0 812.34 114.50
  L 849.41 114.50
  A 0.34 0.34 0.0 0 0 849.75 114.16
  L 849.75 104.34
  A 0.34 0.34 0.0 0 0 849.41 104.00
  L 824.51 104.00
  A 0.34 0.34 0.0 0 1 824.17 103.66
  L 824.29 92.84
  A 0.34 0.34 0.0 0 1 824.63 92.50
  L 845.16 92.50
  A 0.34 0.34 0.0 0 0 845.50 92.16
  L 845.50 82.09
  A 0.34 0.34 0.0 0 0 845.16 81.75
  L 824.63 81.75"
/>
<path stroke="#691d19" vector-effect="non-scaling-stroke" d="
  M 268.25 96.33
  L 268.25 113.50
  A 1.00 1.00 0.0 0 0 269.25 114.50
  L 279.39 114.50
  A 1.00 0.99 4.3 0 0 280.38 113.66
  Q 280.54 112.65 280.44 111.63
  Q 280.19 109.19 280.19 108.84
  Q 280.40 88.96 280.51 69.08
  C 280.52 67.07 279.92 63.82 280.50 61.00
  C 280.68 60.09 280.08 60.02 279.65 60.61
  Q 266.89 77.94 253.88 95.40
  A 1.00 1.00 0.0 0 1 252.28 95.40
  L 227.19 61.44
  Q 225.75 59.48 225.75 61.91
  L 225.75 113.50
  A 1.00 1.00 0.0 0 0 226.75 114.50
  L 237.00 114.50
  A 1.00 1.00 0.0 0 0 238.00 113.50
  L 238.00 96.35
  Q 238.00 93.92 239.44 95.87
  L 252.33 113.32
  A 1.00 1.00 0.0 0 0 253.94 113.32
  L 266.81 95.86
  Q 268.25 93.90 268.25 96.33"
/>
<path stroke="#6d5f36" vector-effect="non-scaling-stroke" d="
  M 97.44 21.31
  Q 99.07 21.77 100.57 24.33
  A 1.01 1.00 -38.0 0 0 102.15 24.52
  L 107.31 19.30
  A 1.01 1.01 0.0 0 0 107.21 17.80
  L 101.55 13.46
  A 1.00 0.99 63.7 0 0 100.94 13.25
  L 88.73 13.25
  A 1.02 0.99 -62.6 0 0 88.13 13.45
  L 82.26 17.80
  A 1.00 0.99 49.2 0 0 82.15 19.31
  L 87.32 24.47
  A 1.00 0.99 38.5 0 0 88.87 24.30
  Q 91.78 19.73 97.44 21.31"
/>
<path stroke="#6d5f36" vector-effect="non-scaling-stroke" d="
  M 77.62 21.74
  C 76.89 20.66 73.31 22.30 72.24 22.66
  A 0.98 0.98 0.0 0 0 71.66 23.17
  L 68.34 30.02
  A 1.00 0.98 -46.8 0 0 68.36 30.94
  L 73.10 39.43
  A 1.01 1.00 68.7 0 0 74.20 39.92
  L 87.72 36.82
  A 1.01 1.00 75.1 0 0 88.45 35.55
  Q 88.06 34.29 87.70 33.09
  C 86.65 29.60 80.92 25.01 78.19 22.53
  Q 78.11 22.46 77.62 21.74"
/>
<path stroke="#6d5f36" vector-effect="non-scaling-stroke" d="
  M 100.79 36.25
  A 0.34 0.34 0.0 0 0 101.04 36.69
  L 115.83 40.06
  A 0.34 0.34 0.0 0 0 116.20 39.90
  L 121.45 30.50
  A 0.34 0.34 0.0 0 0 121.45 30.18
  L 117.58 22.95
  A 0.34 0.34 0.0 0 0 117.40 22.79
  L 112.78 21.13
  A 0.34 0.34 0.0 0 0 112.43 21.21
  L 102.60 30.99
  A 0.34 0.34 0.0 0 0 102.51 31.13
  L 100.79 36.25"
/>
<path stroke="#6d5f36" vector-effect="non-scaling-stroke" d="
  M 94.6672 35.1999
  A 4.70 2.31 90.4 0 0 97.0099 30.5161
  A 4.70 2.31 90.4 0 0 94.7328 25.8001
  A 4.70 2.31 90.4 0 0 92.3901 30.4839
  A 4.70 2.31 90.4 0 0 94.6672 35.1999"
/>
<path stroke="#6d5f36" vector-effect="non-scaling-stroke" d="
  M 108.93 53.26
  L 95.38 41.62
  A 1.00 1.00 0.0 0 0 94.08 41.62
  L 80.80 53.05
  A 1.00 1.00 0.0 0 0 80.47 53.95
  L 82.12 65.62
  A 1.00 0.95 21.2 0 0 82.37 66.15
  C 85.09 69.14 89.65 74.07 92.29 75.76
  Q 95.37 77.73 98.72 74.55
  Q 102.86 70.63 106.86 66.52
  A 0.98 0.94 -18.7 0 0 107.13 66.00
  L 109.26 54.20
  A 1.02 1.00 -65.0 0 0 108.93 53.26"
/>
<path stroke="#6d5f36" vector-effect="non-scaling-stroke" d="
  M 139.05 77.97
  Q 137.76 77.21 136.72 77.22
  Q 134.20 77.24 134.11 75.32
  Q 133.87 70.33 129.01 69.79
  Q 126.74 69.55 126.75 67.53
  C 126.77 56.90 129.28 47.05 115.82 44.90
  Q 111.46 44.20 107.13 43.24
  Q 103.99 42.54 106.44 44.63
  L 112.10 49.47
  A 1.00 0.99 -38.7 0 0 113.23 49.59
  Q 116.82 47.62 119.99 49.19
  C 127.70 53.02 121.12 61.21 117.37 67.14
  Q 115.51 70.09 111.94 69.84
  A 1.00 1.00 0.0 0 0 110.89 70.63
  Q 110.64 71.80 110.28 72.95
  C 108.46 78.69 112.27 81.65 117.61 81.81
  Q 128.86 82.16 140.15 81.96
  A 1.00 1.00 0.0 0 0 141.11 80.77
  Q 140.75 78.97 139.05 77.97"
/>
<path stroke="#cb7d44" vector-effect="non-scaling-stroke" d="
  M 73.75 81.96
  Q 75.73 82.48 76.71 80.75"
/>
<path stroke="#6d5f36" vector-effect="non-scaling-stroke" d="
  M 76.71 80.75
  C 81.09 77.51 79.97 74.89 78.43 70.51
  A 1.00 1.00 0.0 0 0 77.41 69.84
  C 72.66 70.22 69.94 63.75 67.52 59.51
  C 63.37 52.23 68.81 46.20 76.43 49.49
  A 0.99 0.99 0.0 0 0 77.47 49.34
  L 83.03 44.68
  Q 85.42 42.68 82.36 43.29
  Q 77.17 44.31 71.98 45.26
  C 65.43 46.45 63.16 49.57 62.94 56.38
  Q 62.76 61.97 62.72 67.05
  Q 62.70 69.87 60.79 69.88
  Q 56.26 69.93 55.45 74.21
  Q 55.04 76.38 53.59 76.81
  Q 48.98 78.19 48.51 80.79
  A 1.00 0.99 5.0 0 0 49.50 81.96
  L 73.75 81.96"
/>
<path stroke="#6a2c1b" vector-effect="non-scaling-stroke" d="
  M 76.71 80.75
  Q 75.01 80.87 73.75 81.96"
/>
<path stroke="#6d5f36" vector-effect="non-scaling-stroke" d="
  M 75.14 54.60
  Q 73.12 53.01 71.20 54.01
  A 1.00 1.00 0.0 0 0 70.82 55.42
  L 75.29 62.71
  Q 77.51 66.34 76.76 62.15
  L 75.51 55.20
  A 0.99 0.98 13.5 0 0 75.14 54.60"
/>
<path stroke="#6d5f36" vector-effect="non-scaling-stroke" d="
  M 117.62 53.43
  L 114.80 54.30
  A 1.01 0.99 86.4 0 0 114.11 55.10
  L 112.64 64.27
  A 0.35 0.18 -72.4 0 0 112.69 64.56
  L 112.86 64.74
  A 0.21 0.21 0.0 0 0 113.20 64.70
  L 118.79 54.88
  Q 120.04 52.68 117.62 53.43"
/>
<path stroke="#6d5f36" vector-effect="non-scaling-stroke" d="
  M 24.94 71.44
  Q 23.02 74.34 21.35 77.40
  A 1.04 0.97 -38.0 0 0 21.25 78.04
  L 22.15 83.54
  Q 22.52 85.77 23.92 84.00
  L 25.27 82.30
  A 1.00 0.98 -39.7 0 0 25.38 81.22
  L 23.54 77.69
  A 1.03 0.98 42.0 0 1 23.48 76.90
  L 25.42 71.39
  A 0.28 0.26 43.2 0 0 25.41 71.23
  Q 25.27 70.93 24.94 71.44"
/>
<path stroke="#6d5f36" vector-effect="non-scaling-stroke" d="
  M 165.66 77.38
  C 165.74 78.87 164.96 80.00 164.38 81.32
  A 1.01 1.01 0.0 0 0 164.46 82.28
  L 165.74 84.21
  Q 166.80 85.83 167.19 83.93
  L 168.35 78.26
  A 1.00 1.00 0.0 0 0 168.24 77.58
  L 166.61 74.66
  Q 164.87 71.56 165.42 75.07
  Q 165.60 76.22 165.66 77.38"
/>
<path stroke="#6d5f36" vector-effect="non-scaling-stroke" d="
  M 59.19 99.56
  Q 62.43 102.83 65.03 104.49
  A 1.00 1.00 0.0 0 0 66.44 104.13
  Q 72.51 93.12 83.02 89.24
  C 98.42 83.56 115.91 89.83 123.10 104.31
  A 1.00 1.00 0.0 0 0 124.60 104.67
  Q 133.40 97.99 139.08 88.52
  Q 139.99 87.00 138.22 87.00
  Q 127.98 87.00 117.72 87.00
  Q 113.82 86.99 111.52 85.75
  Q 106.64 83.11 104.88 77.53
  A 1.00 1.00 0.0 0 0 103.23 77.11
  Q 99.72 80.55 94.94 81.91
  A 0.97 0.96 45.5 0 1 94.38 81.90
  Q 89.51 80.40 85.95 76.89
  Q 84.92 75.88 84.61 77.29
  Q 83.70 81.41 80.42 84.15
  C 78.92 85.39 75.85 87.07 73.26 87.03
  Q 62.46 86.87 51.49 87.11
  A 1.00 1.00 0.0 0 0 50.64 88.61
  Q 53.76 94.10 59.19 99.56"
/>
<path stroke="#6d5f36" vector-effect="non-scaling-stroke" d="
  M 32.45 80.85
  L 23.86 92.33
  A 0.99 0.97 -30.7 0 0 23.67 93.04
  L 25.53 108.87
  A 1.00 0.99 80.2 0 0 26.74 109.73
  L 29.97 108.99
  A 1.00 1.00 0.0 0 0 30.74 108.02
  C 30.74 102.10 29.61 92.22 31.78 86.88
  Q 32.86 84.21 33.84 81.62
  Q 35.84 76.33 32.45 80.85"
/>
<path stroke="#6d5f36" vector-effect="non-scaling-stroke" d="
  M 159.26 108.85
  L 162.78 109.77
  A 1.00 1.00 0.0 0 0 164.02 108.98
  Q 165.51 100.77 165.55 92.42
  A 1.03 1.01 -63.7 0 0 165.35 91.81
  L 157.17 80.98
  Q 153.96 76.72 155.78 81.73
  Q 156.61 84.01 157.53 86.25
  C 159.69 91.48 158.49 102.07 158.51 107.89
  A 0.99 0.99 0.0 0 0 159.26 108.85"
/>
<path stroke="#6d5f36" vector-effect="non-scaling-stroke" d="
  M 63.38 109.76
  C 56.70 104.30 51.65 99.88 46.41 91.58
  A 0.53 0.48 79.5 0 0 46.11 91.35
  C 45.34 91.16 45.47 92.14 45.67 92.56
  C 47.91 97.34 45.37 99.84 42.08 102.91
  C 40.76 104.13 38.70 107.16 42.48 107.16
  A 1.00 1.00 0.0 0 1 43.45 108.41
  L 41.25 117.08
  A 1.01 0.99 -65.9 0 0 41.65 118.15
  L 47.48 122.19
  A 1.04 1.03 13.3 0 1 47.90 122.86
  L 51.12 143.96
  Q 51.62 147.23 52.67 144.09
  L 55.73 134.96
  A 0.99 0.97 -9.1 0 1 56.10 134.46
  C 58.79 132.53 60.22 134.36 60.23 137.01
  Q 60.27 148.35 60.24 159.75
  A 1.00 1.00 0.0 0 0 61.24 160.75
  L 64.41 160.75
  A 1.00 1.00 0.0 0 0 65.41 159.66
  Q 64.89 154.08 69.79 151.42
  A 1.01 1.01 0.0 0 0 70.30 150.38
  Q 69.59 146.07 72.52 143.09
  A 1.00 1.00 0.0 0 0 72.52 141.69
  Q 59.82 128.78 63.72 110.75
  A 1.01 1.01 0.0 0 0 63.38 109.76"
/>
<path stroke="#6d5f36" vector-effect="non-scaling-stroke" d="
  M 139.22 139.89
  C 139.70 133.81 140.77 128.86 141.29 123.11
  A 1.01 1.00 -15.0 0 1 141.72 122.37
  L 147.73 118.26
  A 1.00 0.99 -26.1 0 0 148.12 117.13
  Q 146.55 112.32 146.45 109.24
  Q 146.37 107.11 148.32 106.71
  A 0.99 0.99 0.0 0 0 149.07 105.44
  Q 148.98 105.13 148.87 104.83
  C 147.96 102.23 144.57 101.32 143.60 98.47
  Q 142.55 95.41 143.94 92.16
  Q 144.24 91.46 143.50 91.44
  A 0.66 0.65 -72.9 0 0 142.93 91.75
  Q 136.38 102.58 125.93 109.69
  A 1.01 1.00 -23.9 0 0 125.52 110.74
  Q 129.66 128.83 117.03 141.70
  A 1.00 0.99 46.5 0 0 117.00 143.06
  Q 119.75 146.15 119.22 150.38
  A 1.00 0.99 18.4 0 0 119.73 151.38
  Q 124.67 154.10 124.27 159.68
  A 1.00 0.99 -87.9 0 0 125.26 160.75
  L 128.25 160.75
  A 1.00 1.00 0.0 0 0 129.25 159.75
  L 129.25 135.31
  A 1.02 1.01 -22.1 0 1 129.56 134.58
  Q 131.18 133.04 133.15 134.16
  A 1.00 1.00 0.0 0 1 133.60 134.71
  L 136.99 144.66
  Q 137.92 147.39 138.53 144.57
  Q 139.03 142.24 139.22 139.89"
/>
<path stroke="#cb7d44" vector-effect="non-scaling-stroke" d="
  M 121.04 125.25
  Q 122.04 122.44 121.54 119.50"
/>
<path stroke="#6d5f36" vector-effect="non-scaling-stroke" d="
  M 121.54 119.50
  Q 121.26 103.24 108.49 95.87
  Q 103.60 93.05 107.51 97.12
  Q 117.66 107.68 112.70 123.28
  A 1.03 1.02 38.4 0 0 112.80 124.10
  C 117.03 131.13 110.43 139.27 103.46 135.26
  A 0.98 0.97 -42.9 0 0 102.54 135.23
  Q 85.27 143.33 72.58 131.30
  Q 68.83 127.75 71.33 132.27
  Q 74.14 137.35 79.02 140.82
  A 1.03 1.01 -27.2 0 0 79.60 141.00
  L 110.28 141.00
  A 1.03 1.01 -63.4 0 0 110.91 140.78
  Q 118.49 134.64 121.04 125.25"
/>
<path stroke="#6a2c1b" vector-effect="non-scaling-stroke" d="
  M 121.54 119.50
  L 121.04 125.25"
/>
<path stroke="#6d5f36" vector-effect="non-scaling-stroke" d="
  M 40.89 96.94
  C 43.33 93.53 38.33 93.11 36.23 95.69
  A 1.02 0.97 65.7 0 0 36.01 96.32
  L 36.00 99.30
  Q 35.99 101.15 37.54 100.14
  Q 39.52 98.85 40.89 96.94"
/>
<path stroke="#6d5f36" vector-effect="non-scaling-stroke" d="
  M 152.49 94.85
  Q 149.56 92.01 147.73 95.61
  A 1.00 0.99 32.9 0 0 148.00 96.84
  L 152.40 100.40
  Q 153.68 101.43 153.71 99.79
  L 153.75 96.17
  A 0.78 0.77 -69.0 0 0 153.48 95.56
  Q 153.36 95.45 153.24 95.37
  Q 152.62 94.99 152.49 94.85"
/>
<path stroke="#6d5f36" vector-effect="non-scaling-stroke" d="
  M 83.17 96.90
  Q 84.90 99.41 84.84 102.11
  C 84.70 108.34 77.23 111.03 72.57 107.16
  Q 71.23 106.05 70.94 107.76
  Q 68.67 121.29 77.00 128.66
  C 83.34 134.26 91.21 134.65 98.92 131.53
  A 1.02 1.00 -12.3 0 0 99.55 130.57
  Q 99.30 122.17 107.49 121.35
  A 1.01 1.00 6.5 0 0 108.33 120.69
  Q 111.23 112.54 107.74 106.03
  Q 100.12 91.79 83.78 95.35
  A 1.00 1.00 0.0 0 0 83.17 96.90"
/>
<path stroke="#6d5f36" vector-effect="non-scaling-stroke" d="
  M 80.0200 101.5189
  A 2.44 2.23 -5.2 0 0 77.3879 99.5192
  A 2.44 2.23 -5.2 0 0 75.1600 101.9611
  A 2.44 2.23 -5.2 0 0 77.7921 103.9608
  A 2.44 2.23 -5.2 0 0 80.0200 101.5189"
/>
<path stroke="#6d5f36" vector-effect="non-scaling-stroke" d="
  M 36.46 120.54
  A 1.01 0.98 -74.2 0 1 36.04 119.76
  Q 35.94 116.82 36.76 114.09
  A 1.01 1.00 -87.7 0 0 35.59 112.82
  L 25.29 115.03
  Q 23.49 115.41 24.79 116.71
  L 27.66 119.58
  Q 29.38 121.29 27.98 122.72
  L 21.93 128.89
  A 1.01 1.00 -32.7 0 0 21.70 129.93
  L 32.37 159.98
  A 1.00 0.99 -8.0 0 0 33.25 160.64
  C 36.41 160.85 38.94 161.17 41.93 159.76
  Q 44.57 158.52 47.22 157.10
  A 1.00 0.99 71.7 0 0 47.73 156.08
  L 43.40 125.83
  A 1.01 0.97 14.2 0 0 42.98 125.16
  L 36.46 120.54"
/>
<path stroke="#cb7d44" vector-effect="non-scaling-stroke" d="
  M 143.96 140.25
  Q 142.99 143.18 143.29 146.25"
/>
<path stroke="#6d5f36" vector-effect="non-scaling-stroke" d="
  M 143.29 146.25
  L 141.81 156.09
  A 0.99 0.99 0.0 0 0 142.33 157.12
  Q 145.01 158.55 147.75 159.86
  C 150.59 161.21 153.12 160.72 156.13 160.75
  A 1.00 0.99 -79.7 0 0 157.08 160.09
  L 167.82 130.02
  A 1.01 1.00 32.7 0 0 167.59 128.98
  L 161.71 123.04
  Q 160.18 121.50 161.69 119.94
  L 164.92 116.63
  A 1.00 1.00 0.0 0 0 164.61 115.02
  Q 163.50 114.51 162.28 114.42
  Q 159.66 114.22 158.77 113.96
  Q 156.28 113.22 153.67 112.75
  A 1.00 1.00 0.0 0 0 152.53 113.99
  L 153.94 119.26
  A 1.01 1.00 -24.3 0 1 153.52 120.35
  L 146.68 124.92
  A 1.00 0.99 78.3 0 0 146.24 125.60
  L 143.96 140.25"
/>
<path stroke="#6a2c1b" vector-effect="non-scaling-stroke" d="
  M 143.29 146.25
  Q 144.54 143.36 143.96 140.25"
/>
<path stroke="#6d5f36" vector-effect="non-scaling-stroke" d="
  M 109.45 128.71
  A 2.38 2.38 0.0 0 0 107.07 126.33
  A 2.38 2.38 0.0 0 0 104.69 128.71
  A 2.38 2.38 0.0 0 0 107.07 131.09
  A 2.38 2.38 0.0 0 0 109.45 128.71"
/>
<path stroke="#6d5f36" vector-effect="non-scaling-stroke" d="
  M 110.98 146.16
  Q 99.99 145.96 78.99 146.03
  Q 74.27 146.05 75.12 150.19
  A 0.99 0.99 0.0 0 0 76.10 150.99
  L 113.32 150.75
  A 0.99 0.99 0.0 0 0 114.28 150.00
  C 115.00 147.29 113.62 146.20 110.98 146.16"
/>
<path stroke="#6d5f36" vector-effect="non-scaling-stroke" d="
  M 118.05 156.05
  A 0.99 0.98 -21.8 0 0 117.34 155.75
  Q 95.53 155.74 73.65 155.76
  C 70.83 155.76 69.52 157.31 70.31 160.03
  A 1.00 1.00 0.0 0 0 71.27 160.75
  L 118.27 160.75
  A 1.00 0.99 -85.2 0 0 119.25 159.92
  Q 119.64 157.66 118.05 156.05"
/>
<path stroke="#6d5f36" vector-effect="non-scaling-stroke" d="
  M 92.84 64.76
  Q 96.64 65.22 100.44 64.66
  Q 103.02 64.28 102.08 61.97
  L 96.67 48.58
  A 1.01 1.01 0.0 0 0 95.87 47.96
  C 91.75 47.47 92.05 50.32 93.24 52.98
  Q 94.48 55.78 95.55 58.66
  A 0.99 0.99 0.0 0 1 94.61 60.00
  L 91.94 60.00
  A 0.91 0.90 27.8 0 0 91.38 60.17
  C 88.38 62.19 90.03 64.43 92.84 64.76"
/>
<path stroke="#6b4b22" vector-effect="non-scaling-stroke" d="
  M 713.71 87.00
  A 16.08 16.08 0.0 0 0 697.63 70.92
  A 16.08 16.08 0.0 0 0 681.55 87.00
  A 16.08 16.08 0.0 0 0 697.63 103.08
  A 16.08 16.08 0.0 0 0 713.71 87.00"
/>
<path stroke="#6c5524" vector-effect="non-scaling-stroke" d="
  M 767.53 103.85
  C 786.29 102.66 787.76 75.69 770.24 70.29
  Q 767.50 69.45 756.19 70.11
  A 1.00 0.99 88.5 0 0 755.25 71.11
  L 755.25 102.90
  A 1.01 1.00 1.8 0 0 756.20 103.90
  Q 762.01 104.20 767.53 103.85"
/>
</g>
<path fill="#0c0e0d" d="
  M 0.00 0.00
  L 866.00 0.00
  L 866.00 178.00
  L 0.00 178.00
  L 0.00 0.00
  Z
  M 18.04 88.50
  Q 17.61 91.14 18.71 93.50
  L 20.56 110.15
  A 1.00 1.00 0.0 0 1 19.58 111.26
  Q 16.84 111.30 16.13 114.12
  A 1.02 1.01 -60.1 0 0 16.38 115.06
  L 21.77 120.71
  A 1.00 1.00 0.0 0 1 21.76 122.10
  L 16.41 127.52
  A 1.00 1.00 0.0 0 0 16.17 128.52
  Q 21.97 146.90 28.97 164.84
  A 1.01 1.00 79.2 0 0 29.90 165.48
  C 33.84 165.49 39.70 166.30 43.36 164.52
  Q 47.64 162.44 51.88 160.21
  A 1.01 0.94 -88.0 0 0 52.31 159.78
  Q 53.46 157.51 54.17 155.11
  Q 55.36 151.08 55.43 155.28
  L 55.54 162.75
  Q 55.58 165.51 58.00 165.51
  L 131.50 165.52
  Q 134.04 165.52 134.01 163.01
  Q 133.95 158.03 134.18 153.07
  Q 134.25 151.39 134.54 152.55
  Q 135.44 156.12 136.96 159.59
  A 0.96 0.94 3.1 0 0 137.39 160.06
  Q 141.65 162.43 146.05 164.51
  C 149.80 166.30 155.61 165.49 159.59 165.48
  A 1.01 1.01 0.0 0 0 160.53 164.84
  Q 163.50 157.08 166.42 149.30
  C 168.64 143.41 170.82 135.51 173.76 128.78
  A 1.01 1.00 33.9 0 0 173.53 127.65
  L 167.84 122.24
  A 1.00 1.00 0.0 0 1 167.80 120.82
  C 169.22 119.36 177.20 112.55 171.00 111.46
  C 167.82 111.32 169.73 106.53 169.46 104.25
  Q 170.52 92.91 172.79 81.76
  Q 173.09 80.31 173.26 76.57
  A 0.97 0.95 30.4 0 0 173.10 75.98
  C 170.08 71.29 166.14 59.79 158.67 68.18
  A 1.01 1.00 -31.8 0 0 158.45 69.09
  C 158.61 69.71 161.24 77.45 160.34 77.21
  A 0.42 0.40 84.9 0 1 160.07 76.97
  C 156.89 69.34 146.82 72.18 149.58 79.42
  Q 151.16 83.55 152.78 87.66
  A 1.00 1.00 0.0 0 1 151.78 89.03
  L 148.75 88.80
  A 0.99 0.98 79.0 0 1 147.93 88.24
  C 144.77 81.82 147.95 75.59 139.30 72.73
  A 0.99 0.98 89.3 0 1 138.67 72.11
  Q 137.03 67.35 132.41 65.50
  A 1.01 1.01 0.0 0 1 131.78 64.55
  Q 131.90 55.97 131.52 53.46
  Q 130.17 44.63 122.25 41.38
  A 1.01 1.00 25.6 0 1 121.75 39.97
  L 126.68 31.03
  A 0.98 0.98 0.0 0 0 126.70 30.10
  L 121.25 19.14
  A 1.02 1.01 85.3 0 0 120.67 18.64
  C 116.67 17.32 113.31 16.19 109.84 13.58
  Q 106.61 11.16 103.39 8.70
  A 1.01 0.95 -24.9 0 0 102.79 8.50
  L 86.71 8.50
  A 1.00 0.99 -63.7 0 0 86.10 8.71
  C 82.49 11.50 78.60 15.06 74.34 16.67
  Q 71.64 17.69 68.84 18.58
  A 0.98 0.97 5.0 0 0 68.24 19.08
  L 62.79 30.02
  A 1.02 1.01 44.7 0 0 62.80 30.94
  L 67.71 40.02
  A 1.01 0.99 64.1 0 1 67.24 41.41
  Q 58.31 45.38 58.11 55.25
  Q 58.02 59.83 57.98 64.52
  A 0.99 0.99 0.0 0 1 57.31 65.46
  Q 52.49 67.10 50.99 71.94
  A 1.02 1.00 -1.4 0 1 50.37 72.58
  Q 43.59 75.02 43.25 82.00
  Q 43.15 84.18 42.68 85.39
  Q 42.14 86.81 41.47 88.18
  A 0.99 0.99 0.0 0 1 40.69 88.73
  L 37.77 89.08
  A 1.00 0.99 7.5 0 1 36.72 87.72
  L 40.21 78.98
  Q 41.32 76.20 39.34 74.19
  Q 35.54 70.32 31.67 74.19
  Q 31.25 74.61 30.84 75.05
  Q 28.76 77.32 29.47 74.33
  Q 29.65 73.58 29.90 72.84
  C 31.72 67.41 28.60 63.62 22.68 66.14
  A 0.99 0.96 -84.7 0 0 22.21 66.54
  L 16.32 76.30
  A 0.98 0.97 56.1 0 0 16.19 76.97
  L 18.04 88.50
  Z
  M 367.85 76.48
  C 364.20 70.91 381.34 66.95 383.78 76.26
  A 1.01 1.00 -7.5 0 0 384.75 77.00
  L 395.14 76.99
  A 1.00 1.00 0.0 0 0 396.13 75.89
  Q 395.76 72.16 394.13 68.92
  C 385.32 51.44 350.25 57.41 357.22 79.36
  C 360.16 88.65 370.37 89.17 378.26 92.11
  C 382.90 93.84 389.98 98.73 380.96 102.20
  Q 373.46 105.08 367.76 99.13
  A 1.01 1.00 -66.5 0 1 367.48 98.41
  L 367.50 97.77
  A 1.00 1.00 0.0 0 0 366.50 96.75
  L 356.07 96.75
  A 1.00 0.99 -3.1 0 0 355.08 97.85
  C 356.82 114.59 375.68 119.10 388.79 112.01
  C 398.76 106.61 400.43 93.24 391.27 86.27
  C 386.68 82.79 377.54 80.77 371.09 78.88
  Q 369.03 78.28 367.85 76.48
  Z
  M 538.38 60.90
  C 512.10 50.07 487.91 79.73 504.11 103.21
  C 512.47 115.33 528.98 119.09 541.66 111.42
  Q 550.28 106.21 554.03 96.86
  A 1.00 1.00 0.0 0 0 553.10 95.49
  L 541.74 95.51
  A 1.00 1.00 0.0 0 0 540.97 95.87
  C 534.35 103.90 524.61 106.04 516.88 99.27
  C 499.03 83.64 525.21 58.70 540.04 77.13
  A 1.01 1.00 -19.3 0 0 540.82 77.50
  L 552.57 77.50
  A 1.00 1.00 0.0 0 0 553.48 76.09
  Q 548.56 65.09 538.38 60.90
  Z
  M 639.89 61.25
  C 608.26 47.15 583.56 90.61 612.14 110.30
  Q 621.94 117.05 632.56 115.09
  Q 648.39 112.17 654.70 96.88
  A 1.00 1.00 0.0 0 0 653.77 95.50
  L 642.18 95.50
  A 1.01 0.99 -72.8 0 0 641.35 95.95
  C 633.38 108.06 616.04 104.37 612.11 90.79
  C 609.91 83.20 615.09 74.49 622.12 71.85
  C 628.92 69.29 636.20 71.50 640.79 77.13
  A 1.01 1.00 -19.3 0 0 641.57 77.50
  L 653.17 77.50
  A 1.00 1.00 0.0 0 0 654.09 76.10
  Q 649.46 65.52 639.89 61.25
  Z
  M 726.02 87.01
  A 28.37 28.37 0.0 0 0 697.65 58.64
  A 28.37 28.37 0.0 0 0 669.28 87.01
  A 28.37 28.37 0.0 0 0 697.65 115.38
  A 28.37 28.37 0.0 0 0 726.02 87.01
  Z
  M 481.51 59.72
  A 0.26 0.26 0.0 0 0 481.25 59.46
  L 469.75 59.46
  A 0.26 0.26 0.0 0 0 469.49 59.72
  L 469.49 114.26
  A 0.26 0.26 0.0 0 0 469.75 114.52
  L 481.25 114.52
  A 0.26 0.26 0.0 0 0 481.51 114.26
  L 481.51 59.72
  Z
  M 320.23 78.64
  A 0.34 0.34 0.0 0 1 319.67 78.64
  L 307.04 59.65
  A 0.34 0.34 0.0 0 0 306.76 59.50
  L 295.42 59.50
  A 0.34 0.34 0.0 0 0 295.14 60.03
  L 313.92 88.24
  A 0.34 0.34 0.0 0 1 313.98 88.43
  L 314.01 114.16
  A 0.34 0.34 0.0 0 0 314.35 114.50
  L 325.70 114.50
  A 0.34 0.34 0.0 0 0 326.04 114.16
  L 325.98 88.50
  A 0.34 0.34 0.0 0 1 326.04 88.31
  L 344.85 60.03
  A 0.34 0.34 0.0 0 0 344.57 59.50
  L 333.29 59.50
  A 0.34 0.34 0.0 0 0 333.01 59.65
  L 320.23 78.64
  Z
  M 437.99 70.41
  A 0.41 0.41 0.0 0 1 438.40 70.00
  L 453.84 70.00
  A 0.41 0.41 0.0 0 0 454.25 69.59
  L 454.25 59.91
  A 0.41 0.41 0.0 0 0 453.84 59.50
  L 410.16 59.50
  A 0.41 0.41 0.0 0 0 409.75 59.91
  L 409.75 69.59
  A 0.41 0.41 0.0 0 0 410.16 70.00
  L 425.59 70.00
  A 0.41 0.41 0.0 0 1 426.00 70.41
  L 426.00 114.09
  A 0.41 0.41 0.0 0 0 426.41 114.50
  L 437.61 114.50
  A 0.41 0.41 0.0 0 0 438.02 114.09
  L 437.99 70.41
  Z
  M 743.24 60.52
  L 743.24 113.46
  A 1.00 1.00 0.0 0 0 744.24 114.46
  Q 753.07 114.47 761.90 114.53
  Q 770.94 114.58 775.45 113.24
  C 802.95 105.05 800.41 64.67 772.44 59.97
  Q 770.17 59.59 758.03 59.50
  Q 751.07 59.45 744.23 59.52
  A 1.00 1.00 0.0 0 0 743.24 60.52
  Z
  M 824.63 81.75
  A 0.34 0.34 0.0 0 1 824.29 81.41
  L 824.17 70.34
  A 0.34 0.34 0.0 0 1 824.51 70.00
  L 849.47 70.00
  A 0.34 0.34 0.0 0 0 849.81 69.66
  L 849.72 59.84
  A 0.34 0.34 0.0 0 0 849.38 59.50
  L 812.34 59.50
  A 0.34 0.34 0.0 0 0 812.00 59.84
  L 812.00 114.16
  A 0.34 0.34 0.0 0 0 812.34 114.50
  L 849.41 114.50
  A 0.34 0.34 0.0 0 0 849.75 114.16
  L 849.75 104.34
  A 0.34 0.34 0.0 0 0 849.41 104.00
  L 824.51 104.00
  A 0.34 0.34 0.0 0 1 824.17 103.66
  L 824.29 92.84
  A 0.34 0.34 0.0 0 1 824.63 92.50
  L 845.16 92.50
  A 0.34 0.34 0.0 0 0 845.50 92.16
  L 845.50 82.09
  A 0.34 0.34 0.0 0 0 845.16 81.75
  L 824.63 81.75
  Z
  M 268.25 96.33
  L 268.25 113.50
  A 1.00 1.00 0.0 0 0 269.25 114.50
  L 279.39 114.50
  A 1.00 0.99 4.3 0 0 280.38 113.66
  Q 280.54 112.65 280.44 111.63
  Q 280.19 109.19 280.19 108.84
  Q 280.40 88.96 280.51 69.08
  C 280.52 67.07 279.92 63.82 280.50 61.00
  C 280.68 60.09 280.08 60.02 279.65 60.61
  Q 266.89 77.94 253.88 95.40
  A 1.00 1.00 0.0 0 1 252.28 95.40
  L 227.19 61.44
  Q 225.75 59.48 225.75 61.91
  L 225.75 113.50
  A 1.00 1.00 0.0 0 0 226.75 114.50
  L 237.00 114.50
  A 1.00 1.00 0.0 0 0 238.00 113.50
  L 238.00 96.35
  Q 238.00 93.92 239.44 95.87
  L 252.33 113.32
  A 1.00 1.00 0.0 0 0 253.94 113.32
  L 266.81 95.86
  Q 268.25 93.90 268.25 96.33
  Z"
/>
<path fill="#ceb05e" d="
  M 169.46 104.25
  Q 168.57 107.32 168.76 110.49
  A 0.99 0.98 -85.9 0 0 169.55 111.41
  Q 170.26 111.56 171.00 111.46
  C 177.20 112.55 169.22 119.36 167.80 120.82
  A 1.00 1.00 0.0 0 0 167.84 122.24
  L 173.53 127.65
  A 1.01 1.00 33.9 0 1 173.76 128.78
  C 170.82 135.51 168.64 143.41 166.42 149.30
  Q 163.50 157.08 160.53 164.84
  A 1.01 1.01 0.0 0 1 159.59 165.48
  C 155.61 165.49 149.80 166.30 146.05 164.51
  Q 141.65 162.43 137.39 160.06
  A 0.96 0.94 3.1 0 1 136.96 159.59
  Q 135.44 156.12 134.54 152.55
  Q 134.25 151.39 134.18 153.07
  Q 133.95 158.03 134.01 163.01
  Q 134.04 165.52 131.50 165.52
  L 58.00 165.51
  Q 55.58 165.51 55.54 162.75
  L 55.43 155.28
  Q 55.36 151.08 54.17 155.11
  Q 53.46 157.51 52.31 159.78
  A 1.01 0.94 -88.0 0 1 51.88 160.21
  Q 47.64 162.44 43.36 164.52
  C 39.70 166.30 33.84 165.49 29.90 165.48
  A 1.01 1.00 79.2 0 1 28.97 164.84
  Q 21.97 146.90 16.17 128.52
  A 1.00 1.00 0.0 0 1 16.41 127.52
  L 21.76 122.10
  A 1.00 1.00 0.0 0 0 21.77 120.71
  L 16.38 115.06
  A 1.02 1.01 -60.1 0 1 16.13 114.12
  Q 16.84 111.30 19.58 111.26
  A 1.00 1.00 0.0 0 0 20.56 110.15
  L 18.71 93.50
  L 18.04 88.50
  L 16.19 76.97
  A 0.98 0.97 56.1 0 1 16.32 76.30
  L 22.21 66.54
  A 0.99 0.96 -84.7 0 1 22.68 66.14
  C 28.60 63.62 31.72 67.41 29.90 72.84
  Q 29.65 73.58 29.47 74.33
  Q 28.76 77.32 30.84 75.05
  Q 31.25 74.61 31.67 74.19
  Q 35.54 70.32 39.34 74.19
  Q 41.32 76.20 40.21 78.98
  L 36.72 87.72
  A 1.00 0.99 7.5 0 0 37.77 89.08
  L 40.69 88.73
  A 0.99 0.99 0.0 0 0 41.47 88.18
  Q 42.14 86.81 42.68 85.39
  Q 43.15 84.18 43.25 82.00
  Q 43.59 75.02 50.37 72.58
  A 1.02 1.00 -1.4 0 0 50.99 71.94
  Q 52.49 67.10 57.31 65.46
  A 0.99 0.99 0.0 0 0 57.98 64.52
  Q 58.02 59.83 58.11 55.25
  Q 58.31 45.38 67.24 41.41
  A 1.01 0.99 64.1 0 0 67.71 40.02
  L 62.80 30.94
  A 1.02 1.01 44.7 0 1 62.79 30.02
  L 68.24 19.08
  A 0.98 0.97 5.0 0 1 68.84 18.58
  Q 71.64 17.69 74.34 16.67
  C 78.60 15.06 82.49 11.50 86.10 8.71
  A 1.00 0.99 -63.7 0 1 86.71 8.50
  L 102.79 8.50
  A 1.01 0.95 -24.9 0 1 103.39 8.70
  Q 106.61 11.16 109.84 13.58
  C 113.31 16.19 116.67 17.32 120.67 18.64
  A 1.02 1.01 85.3 0 1 121.25 19.14
  L 126.70 30.10
  A 0.98 0.98 0.0 0 1 126.68 31.03
  L 121.75 39.97
  A 1.01 1.00 25.6 0 0 122.25 41.38
  Q 130.17 44.63 131.52 53.46
  Q 131.90 55.97 131.78 64.55
  A 1.01 1.01 0.0 0 0 132.41 65.50
  Q 137.03 67.35 138.67 72.11
  A 0.99 0.98 89.3 0 0 139.30 72.73
  C 147.95 75.59 144.77 81.82 147.93 88.24
  A 0.99 0.98 79.0 0 0 148.75 88.80
  L 151.78 89.03
  A 1.00 1.00 0.0 0 0 152.78 87.66
  Q 151.16 83.55 149.58 79.42
  C 146.82 72.18 156.89 69.34 160.07 76.97
  A 0.42 0.40 84.9 0 0 160.34 77.21
  C 161.24 77.45 158.61 69.71 158.45 69.09
  A 1.01 1.00 -31.8 0 1 158.67 68.18
  C 166.14 59.79 170.08 71.29 173.10 75.98
  A 0.97 0.95 30.4 0 1 173.26 76.57
  Q 173.09 80.31 172.79 81.76
  Q 170.52 92.91 169.46 104.25
  Z
  M 97.44 21.31
  Q 99.07 21.77 100.57 24.33
  A 1.01 1.00 -38.0 0 0 102.15 24.52
  L 107.31 19.30
  A 1.01 1.01 0.0 0 0 107.21 17.80
  L 101.55 13.46
  A 1.00 0.99 63.7 0 0 100.94 13.25
  L 88.73 13.25
  A 1.02 0.99 -62.6 0 0 88.13 13.45
  L 82.26 17.80
  A 1.00 0.99 49.2 0 0 82.15 19.31
  L 87.32 24.47
  A 1.00 0.99 38.5 0 0 88.87 24.30
  Q 91.78 19.73 97.44 21.31
  Z
  M 77.62 21.74
  C 76.89 20.66 73.31 22.30 72.24 22.66
  A 0.98 0.98 0.0 0 0 71.66 23.17
  L 68.34 30.02
  A 1.00 0.98 -46.8 0 0 68.36 30.94
  L 73.10 39.43
  A 1.01 1.00 68.7 0 0 74.20 39.92
  L 87.72 36.82
  A 1.01 1.00 75.1 0 0 88.45 35.55
  Q 88.06 34.29 87.70 33.09
  C 86.65 29.60 80.92 25.01 78.19 22.53
  Q 78.11 22.46 77.62 21.74
  Z
  M 100.79 36.25
  A 0.34 0.34 0.0 0 0 101.04 36.69
  L 115.83 40.06
  A 0.34 0.34 0.0 0 0 116.20 39.90
  L 121.45 30.50
  A 0.34 0.34 0.0 0 0 121.45 30.18
  L 117.58 22.95
  A 0.34 0.34 0.0 0 0 117.40 22.79
  L 112.78 21.13
  A 0.34 0.34 0.0 0 0 112.43 21.21
  L 102.60 30.99
  A 0.34 0.34 0.0 0 0 102.51 31.13
  L 100.79 36.25
  Z
  M 94.6672 35.1999
  A 4.70 2.31 90.4 0 0 97.0099 30.5161
  A 4.70 2.31 90.4 0 0 94.7328 25.8001
  A 4.70 2.31 90.4 0 0 92.3901 30.4839
  A 4.70 2.31 90.4 0 0 94.6672 35.1999
  Z
  M 108.93 53.26
  L 95.38 41.62
  A 1.00 1.00 0.0 0 0 94.08 41.62
  L 80.80 53.05
  A 1.00 1.00 0.0 0 0 80.47 53.95
  L 82.12 65.62
  A 1.00 0.95 21.2 0 0 82.37 66.15
  C 85.09 69.14 89.65 74.07 92.29 75.76
  Q 95.37 77.73 98.72 74.55
  Q 102.86 70.63 106.86 66.52
  A 0.98 0.94 -18.7 0 0 107.13 66.00
  L 109.26 54.20
  A 1.02 1.00 -65.0 0 0 108.93 53.26
  Z
  M 139.05 77.97
  Q 137.76 77.21 136.72 77.22
  Q 134.20 77.24 134.11 75.32
  Q 133.87 70.33 129.01 69.79
  Q 126.74 69.55 126.75 67.53
  C 126.77 56.90 129.28 47.05 115.82 44.90
  Q 111.46 44.20 107.13 43.24
  Q 103.99 42.54 106.44 44.63
  L 112.10 49.47
  A 1.00 0.99 -38.7 0 0 113.23 49.59
  Q 116.82 47.62 119.99 49.19
  C 127.70 53.02 121.12 61.21 117.37 67.14
  Q 115.51 70.09 111.94 69.84
  A 1.00 1.00 0.0 0 0 110.89 70.63
  Q 110.64 71.80 110.28 72.95
  C 108.46 78.69 112.27 81.65 117.61 81.81
  Q 128.86 82.16 140.15 81.96
  A 1.00 1.00 0.0 0 0 141.11 80.77
  Q 140.75 78.97 139.05 77.97
  Z
  M 73.75 81.96
  Q 75.73 82.48 76.71 80.75
  C 81.09 77.51 79.97 74.89 78.43 70.51
  A 1.00 1.00 0.0 0 0 77.41 69.84
  C 72.66 70.22 69.94 63.75 67.52 59.51
  C 63.37 52.23 68.81 46.20 76.43 49.49
  A 0.99 0.99 0.0 0 0 77.47 49.34
  L 83.03 44.68
  Q 85.42 42.68 82.36 43.29
  Q 77.17 44.31 71.98 45.26
  C 65.43 46.45 63.16 49.57 62.94 56.38
  Q 62.76 61.97 62.72 67.05
  Q 62.70 69.87 60.79 69.88
  Q 56.26 69.93 55.45 74.21
  Q 55.04 76.38 53.59 76.81
  Q 48.98 78.19 48.51 80.79
  A 1.00 0.99 5.0 0 0 49.50 81.96
  L 73.75 81.96
  Z
  M 75.14 54.60
  Q 73.12 53.01 71.20 54.01
  A 1.00 1.00 0.0 0 0 70.82 55.42
  L 75.29 62.71
  Q 77.51 66.34 76.76 62.15
  L 75.51 55.20
  A 0.99 0.98 13.5 0 0 75.14 54.60
  Z
  M 117.62 53.43
  L 114.80 54.30
  A 1.01 0.99 86.4 0 0 114.11 55.10
  L 112.64 64.27
  A 0.35 0.18 -72.4 0 0 112.69 64.56
  L 112.86 64.74
  A 0.21 0.21 0.0 0 0 113.20 64.70
  L 118.79 54.88
  Q 120.04 52.68 117.62 53.43
  Z
  M 24.94 71.44
  Q 23.02 74.34 21.35 77.40
  A 1.04 0.97 -38.0 0 0 21.25 78.04
  L 22.15 83.54
  Q 22.52 85.77 23.92 84.00
  L 25.27 82.30
  A 1.00 0.98 -39.7 0 0 25.38 81.22
  L 23.54 77.69
  A 1.03 0.98 42.0 0 1 23.48 76.90
  L 25.42 71.39
  A 0.28 0.26 43.2 0 0 25.41 71.23
  Q 25.27 70.93 24.94 71.44
  Z
  M 165.66 77.38
  C 165.74 78.87 164.96 80.00 164.38 81.32
  A 1.01 1.01 0.0 0 0 164.46 82.28
  L 165.74 84.21
  Q 166.80 85.83 167.19 83.93
  L 168.35 78.26
  A 1.00 1.00 0.0 0 0 168.24 77.58
  L 166.61 74.66
  Q 164.87 71.56 165.42 75.07
  Q 165.60 76.22 165.66 77.38
  Z
  M 59.19 99.56
  Q 62.43 102.83 65.03 104.49
  A 1.00 1.00 0.0 0 0 66.44 104.13
  Q 72.51 93.12 83.02 89.24
  C 98.42 83.56 115.91 89.83 123.10 104.31
  A 1.00 1.00 0.0 0 0 124.60 104.67
  Q 133.40 97.99 139.08 88.52
  Q 139.99 87.00 138.22 87.00
  Q 127.98 87.00 117.72 87.00
  Q 113.82 86.99 111.52 85.75
  Q 106.64 83.11 104.88 77.53
  A 1.00 1.00 0.0 0 0 103.23 77.11
  Q 99.72 80.55 94.94 81.91
  A 0.97 0.96 45.5 0 1 94.38 81.90
  Q 89.51 80.40 85.95 76.89
  Q 84.92 75.88 84.61 77.29
  Q 83.70 81.41 80.42 84.15
  C 78.92 85.39 75.85 87.07 73.26 87.03
  Q 62.46 86.87 51.49 87.11
  A 1.00 1.00 0.0 0 0 50.64 88.61
  Q 53.76 94.10 59.19 99.56
  Z
  M 32.45 80.85
  L 23.86 92.33
  A 0.99 0.97 -30.7 0 0 23.67 93.04
  L 25.53 108.87
  A 1.00 0.99 80.2 0 0 26.74 109.73
  L 29.97 108.99
  A 1.00 1.00 0.0 0 0 30.74 108.02
  C 30.74 102.10 29.61 92.22 31.78 86.88
  Q 32.86 84.21 33.84 81.62
  Q 35.84 76.33 32.45 80.85
  Z
  M 159.26 108.85
  L 162.78 109.77
  A 1.00 1.00 0.0 0 0 164.02 108.98
  Q 165.51 100.77 165.55 92.42
  A 1.03 1.01 -63.7 0 0 165.35 91.81
  L 157.17 80.98
  Q 153.96 76.72 155.78 81.73
  Q 156.61 84.01 157.53 86.25
  C 159.69 91.48 158.49 102.07 158.51 107.89
  A 0.99 0.99 0.0 0 0 159.26 108.85
  Z
  M 63.38 109.76
  C 56.70 104.30 51.65 99.88 46.41 91.58
  A 0.53 0.48 79.5 0 0 46.11 91.35
  C 45.34 91.16 45.47 92.14 45.67 92.56
  C 47.91 97.34 45.37 99.84 42.08 102.91
  C 40.76 104.13 38.70 107.16 42.48 107.16
  A 1.00 1.00 0.0 0 1 43.45 108.41
  L 41.25 117.08
  A 1.01 0.99 -65.9 0 0 41.65 118.15
  L 47.48 122.19
  A 1.04 1.03 13.3 0 1 47.90 122.86
  L 51.12 143.96
  Q 51.62 147.23 52.67 144.09
  L 55.73 134.96
  A 0.99 0.97 -9.1 0 1 56.10 134.46
  C 58.79 132.53 60.22 134.36 60.23 137.01
  Q 60.27 148.35 60.24 159.75
  A 1.00 1.00 0.0 0 0 61.24 160.75
  L 64.41 160.75
  A 1.00 1.00 0.0 0 0 65.41 159.66
  Q 64.89 154.08 69.79 151.42
  A 1.01 1.01 0.0 0 0 70.30 150.38
  Q 69.59 146.07 72.52 143.09
  A 1.00 1.00 0.0 0 0 72.52 141.69
  Q 59.82 128.78 63.72 110.75
  A 1.01 1.01 0.0 0 0 63.38 109.76
  Z
  M 139.22 139.89
  C 139.70 133.81 140.77 128.86 141.29 123.11
  A 1.01 1.00 -15.0 0 1 141.72 122.37
  L 147.73 118.26
  A 1.00 0.99 -26.1 0 0 148.12 117.13
  Q 146.55 112.32 146.45 109.24
  Q 146.37 107.11 148.32 106.71
  A 0.99 0.99 0.0 0 0 149.07 105.44
  Q 148.98 105.13 148.87 104.83
  C 147.96 102.23 144.57 101.32 143.60 98.47
  Q 142.55 95.41 143.94 92.16
  Q 144.24 91.46 143.50 91.44
  A 0.66 0.65 -72.9 0 0 142.93 91.75
  Q 136.38 102.58 125.93 109.69
  A 1.01 1.00 -23.9 0 0 125.52 110.74
  Q 129.66 128.83 117.03 141.70
  A 1.00 0.99 46.5 0 0 117.00 143.06
  Q 119.75 146.15 119.22 150.38
  A 1.00 0.99 18.4 0 0 119.73 151.38
  Q 124.67 154.10 124.27 159.68
  A 1.00 0.99 -87.9 0 0 125.26 160.75
  L 128.25 160.75
  A 1.00 1.00 0.0 0 0 129.25 159.75
  L 129.25 135.31
  A 1.02 1.01 -22.1 0 1 129.56 134.58
  Q 131.18 133.04 133.15 134.16
  A 1.00 1.00 0.0 0 1 133.60 134.71
  L 136.99 144.66
  Q 137.92 147.39 138.53 144.57
  Q 139.03 142.24 139.22 139.89
  Z
  M 121.04 125.25
  Q 122.04 122.44 121.54 119.50
  Q 121.26 103.24 108.49 95.87
  Q 103.60 93.05 107.51 97.12
  Q 117.66 107.68 112.70 123.28
  A 1.03 1.02 38.4 0 0 112.80 124.10
  C 117.03 131.13 110.43 139.27 103.46 135.26
  A 0.98 0.97 -42.9 0 0 102.54 135.23
  Q 85.27 143.33 72.58 131.30
  Q 68.83 127.75 71.33 132.27
  Q 74.14 137.35 79.02 140.82
  A 1.03 1.01 -27.2 0 0 79.60 141.00
  L 110.28 141.00
  A 1.03 1.01 -63.4 0 0 110.91 140.78
  Q 118.49 134.64 121.04 125.25
  Z
  M 40.89 96.94
  C 43.33 93.53 38.33 93.11 36.23 95.69
  A 1.02 0.97 65.7 0 0 36.01 96.32
  L 36.00 99.30
  Q 35.99 101.15 37.54 100.14
  Q 39.52 98.85 40.89 96.94
  Z
  M 152.49 94.85
  Q 149.56 92.01 147.73 95.61
  A 1.00 0.99 32.9 0 0 148.00 96.84
  L 152.40 100.40
  Q 153.68 101.43 153.71 99.79
  L 153.75 96.17
  A 0.78 0.77 -69.0 0 0 153.48 95.56
  Q 153.36 95.45 153.24 95.37
  Q 152.62 94.99 152.49 94.85
  Z
  M 83.17 96.90
  Q 84.90 99.41 84.84 102.11
  C 84.70 108.34 77.23 111.03 72.57 107.16
  Q 71.23 106.05 70.94 107.76
  Q 68.67 121.29 77.00 128.66
  C 83.34 134.26 91.21 134.65 98.92 131.53
  A 1.02 1.00 -12.3 0 0 99.55 130.57
  Q 99.30 122.17 107.49 121.35
  A 1.01 1.00 6.5 0 0 108.33 120.69
  Q 111.23 112.54 107.74 106.03
  Q 100.12 91.79 83.78 95.35
  A 1.00 1.00 0.0 0 0 83.17 96.90
  Z
  M 80.0200 101.5189
  A 2.44 2.23 -5.2 0 0 77.3879 99.5192
  A 2.44 2.23 -5.2 0 0 75.1600 101.9611
  A 2.44 2.23 -5.2 0 0 77.7921 103.9608
  A 2.44 2.23 -5.2 0 0 80.0200 101.5189
  Z
  M 36.46 120.54
  A 1.01 0.98 -74.2 0 1 36.04 119.76
  Q 35.94 116.82 36.76 114.09
  A 1.01 1.00 -87.7 0 0 35.59 112.82
  L 25.29 115.03
  Q 23.49 115.41 24.79 116.71
  L 27.66 119.58
  Q 29.38 121.29 27.98 122.72
  L 21.93 128.89
  A 1.01 1.00 -32.7 0 0 21.70 129.93
  L 32.37 159.98
  A 1.00 0.99 -8.0 0 0 33.25 160.64
  C 36.41 160.85 38.94 161.17 41.93 159.76
  Q 44.57 158.52 47.22 157.10
  A 1.00 0.99 71.7 0 0 47.73 156.08
  L 43.40 125.83
  A 1.01 0.97 14.2 0 0 42.98 125.16
  L 36.46 120.54
  Z
  M 143.96 140.25
  Q 142.99 143.18 143.29 146.25
  L 141.81 156.09
  A 0.99 0.99 0.0 0 0 142.33 157.12
  Q 145.01 158.55 147.75 159.86
  C 150.59 161.21 153.12 160.72 156.13 160.75
  A 1.00 0.99 -79.7 0 0 157.08 160.09
  L 167.82 130.02
  A 1.01 1.00 32.7 0 0 167.59 128.98
  L 161.71 123.04
  Q 160.18 121.50 161.69 119.94
  L 164.92 116.63
  A 1.00 1.00 0.0 0 0 164.61 115.02
  Q 163.50 114.51 162.28 114.42
  Q 159.66 114.22 158.77 113.96
  Q 156.28 113.22 153.67 112.75
  A 1.00 1.00 0.0 0 0 152.53 113.99
  L 153.94 119.26
  A 1.01 1.00 -24.3 0 1 153.52 120.35
  L 146.68 124.92
  A 1.00 0.99 78.3 0 0 146.24 125.60
  L 143.96 140.25
  Z
  M 109.45 128.71
  A 2.38 2.38 0.0 0 0 107.07 126.33
  A 2.38 2.38 0.0 0 0 104.69 128.71
  A 2.38 2.38 0.0 0 0 107.07 131.09
  A 2.38 2.38 0.0 0 0 109.45 128.71
  Z
  M 110.98 146.16
  Q 99.99 145.96 78.99 146.03
  Q 74.27 146.05 75.12 150.19
  A 0.99 0.99 0.0 0 0 76.10 150.99
  L 113.32 150.75
  A 0.99 0.99 0.0 0 0 114.28 150.00
  C 115.00 147.29 113.62 146.20 110.98 146.16
  Z
  M 118.05 156.05
  A 0.99 0.98 -21.8 0 0 117.34 155.75
  Q 95.53 155.74 73.65 155.76
  C 70.83 155.76 69.52 157.31 70.31 160.03
  A 1.00 1.00 0.0 0 0 71.27 160.75
  L 118.27 160.75
  A 1.00 0.99 -85.2 0 0 119.25 159.92
  Q 119.64 157.66 118.05 156.05
  Z"
/>
<path fill="#0c0e0d" d="
  M 97.44 21.31
  Q 91.78 19.73 88.87 24.30
  A 1.00 0.99 38.5 0 1 87.32 24.47
  L 82.15 19.31
  A 1.00 0.99 49.2 0 1 82.26 17.80
  L 88.13 13.45
  A 1.02 0.99 -62.6 0 1 88.73 13.25
  L 100.94 13.25
  A 1.00 0.99 63.7 0 1 101.55 13.46
  L 107.21 17.80
  A 1.01 1.01 0.0 0 1 107.31 19.30
  L 102.15 24.52
  A 1.01 1.00 -38.0 0 1 100.57 24.33
  Q 99.07 21.77 97.44 21.31
  Z"
/>
<path fill="#0c0e0d" d="
  M 78.19 22.53
  C 80.92 25.01 86.65 29.60 87.70 33.09
  Q 88.06 34.29 88.45 35.55
  A 1.01 1.00 75.1 0 1 87.72 36.82
  L 74.20 39.92
  A 1.01 1.00 68.7 0 1 73.10 39.43
  L 68.36 30.94
  A 1.00 0.98 -46.8 0 1 68.34 30.02
  L 71.66 23.17
  A 0.98 0.98 0.0 0 1 72.24 22.66
  C 73.31 22.30 76.89 20.66 77.62 21.74
  Q 78.11 22.46 78.19 22.53
  Z"
/>
<path fill="#0c0e0d" d="
  M 100.79 36.25
  L 102.51 31.13
  A 0.34 0.34 0.0 0 1 102.60 30.99
  L 112.43 21.21
  A 0.34 0.34 0.0 0 1 112.78 21.13
  L 117.40 22.79
  A 0.34 0.34 0.0 0 1 117.58 22.95
  L 121.45 30.18
  A 0.34 0.34 0.0 0 1 121.45 30.50
  L 116.20 39.90
  A 0.34 0.34 0.0 0 1 115.83 40.06
  L 101.04 36.69
  A 0.34 0.34 0.0 0 1 100.79 36.25
  Z"
/>
<ellipse fill="#0c0e0d" cx="0.00" cy="0.00" transform="translate(94.70,30.50) rotate(90.4)" rx="4.70" ry="2.31"/>
<path fill="#0c0e0d" d="
  M 108.93 53.26
  A 1.02 1.00 -65.0 0 1 109.26 54.20
  L 107.13 66.00
  A 0.98 0.94 -18.7 0 1 106.86 66.52
  Q 102.86 70.63 98.72 74.55
  Q 95.37 77.73 92.29 75.76
  C 89.65 74.07 85.09 69.14 82.37 66.15
  A 1.00 0.95 21.2 0 1 82.12 65.62
  L 80.47 53.95
  A 1.00 1.00 0.0 0 1 80.80 53.05
  L 94.08 41.62
  A 1.00 1.00 0.0 0 1 95.38 41.62
  L 108.93 53.26
  Z
  M 92.84 64.76
  Q 96.64 65.22 100.44 64.66
  Q 103.02 64.28 102.08 61.97
  L 96.67 48.58
  A 1.01 1.01 0.0 0 0 95.87 47.96
  C 91.75 47.47 92.05 50.32 93.24 52.98
  Q 94.48 55.78 95.55 58.66
  A 0.99 0.99 0.0 0 1 94.61 60.00
  L 91.94 60.00
  A 0.91 0.90 27.8 0 0 91.38 60.17
  C 88.38 62.19 90.03 64.43 92.84 64.76
  Z"
/>
<path fill="#0c0e0d" d="
  M 139.05 77.97
  Q 140.75 78.97 141.11 80.77
  A 1.00 1.00 0.0 0 1 140.15 81.96
  Q 128.86 82.16 117.61 81.81
  C 112.27 81.65 108.46 78.69 110.28 72.95
  Q 110.64 71.80 110.89 70.63
  A 1.00 1.00 0.0 0 1 111.94 69.84
  Q 115.51 70.09 117.37 67.14
  C 121.12 61.21 127.70 53.02 119.99 49.19
  Q 116.82 47.62 113.23 49.59
  A 1.00 0.99 -38.7 0 1 112.10 49.47
  L 106.44 44.63
  Q 103.99 42.54 107.13 43.24
  Q 111.46 44.20 115.82 44.90
  C 129.28 47.05 126.77 56.90 126.75 67.53
  Q 126.74 69.55 129.01 69.79
  Q 133.87 70.33 134.11 75.32
  Q 134.20 77.24 136.72 77.22
  Q 137.76 77.21 139.05 77.97
  Z"
/>
<path fill="#0c0e0d" d="
  M 76.71 80.75
  Q 75.01 80.87 73.75 81.96
  L 49.50 81.96
  A 1.00 0.99 5.0 0 1 48.51 80.79
  Q 48.98 78.19 53.59 76.81
  Q 55.04 76.38 55.45 74.21
  Q 56.26 69.93 60.79 69.88
  Q 62.70 69.87 62.72 67.05
  Q 62.76 61.97 62.94 56.38
  C 63.16 49.57 65.43 46.45 71.98 45.26
  Q 77.17 44.31 82.36 43.29
  Q 85.42 42.68 83.03 44.68
  L 77.47 49.34
  A 0.99 0.99 0.0 0 1 76.43 49.49
  C 68.81 46.20 63.37 52.23 67.52 59.51
  C 69.94 63.75 72.66 70.22 77.41 69.84
  A 1.00 1.00 0.0 0 1 78.43 70.51
  C 79.97 74.89 81.09 77.51 76.71 80.75
  Z"
/>
<path fill="#ceb05e" d="
  M 92.84 64.76
  C 90.03 64.43 88.38 62.19 91.38 60.17
  A 0.91 0.90 27.8 0 1 91.94 60.00
  L 94.61 60.00
  A 0.99 0.99 0.0 0 0 95.55 58.66
  Q 94.48 55.78 93.24 52.98
  C 92.05 50.32 91.75 47.47 95.87 47.96
  A 1.01 1.01 0.0 0 1 96.67 48.58
  L 102.08 61.97
  Q 103.02 64.28 100.44 64.66
  Q 96.64 65.22 92.84 64.76
  Z"
/>
<path fill="#0c0e0d" d="
  M 75.14 54.60
  A 0.99 0.98 13.5 0 1 75.51 55.20
  L 76.76 62.15
  Q 77.51 66.34 75.29 62.71
  L 70.82 55.42
  A 1.00 1.00 0.0 0 1 71.20 54.01
  Q 73.12 53.01 75.14 54.60
  Z"
/>
<path fill="#0c0e0d" d="
  M 117.62 53.43
  Q 120.04 52.68 118.79 54.88
  L 113.20 64.70
  A 0.21 0.21 0.0 0 1 112.86 64.74
  L 112.69 64.56
  A 0.35 0.18 -72.4 0 1 112.64 64.27
  L 114.11 55.10
  A 1.01 0.99 86.4 0 1 114.80 54.30
  L 117.62 53.43
  Z"
/>
<path fill="#c74a29" d="
  M 367.85 76.48
  Q 369.03 78.28 371.09 78.88
  C 377.54 80.77 386.68 82.79 391.27 86.27
  C 400.43 93.24 398.76 106.61 388.79 112.01
  C 375.68 119.10 356.82 114.59 355.08 97.85
  A 1.00 0.99 -3.1 0 1 356.07 96.75
  L 366.50 96.75
  A 1.00 1.00 0.0 0 1 367.50 97.77
  L 367.48 98.41
  A 1.01 1.00 -66.5 0 0 367.76 99.13
  Q 373.46 105.08 380.96 102.20
  C 389.98 98.73 382.90 93.84 378.26 92.11
  C 370.37 89.17 360.16 88.65 357.22 79.36
  C 350.25 57.41 385.32 51.44 394.13 68.92
  Q 395.76 72.16 396.13 75.89
  A 1.00 1.00 0.0 0 1 395.14 76.99
  L 384.75 77.00
  A 1.01 1.00 -7.5 0 1 383.78 76.26
  C 381.34 66.95 364.20 70.91 367.85 76.48
  Z"
/>
<path fill="#c8682f" d="
  M 504.11 103.21
  C 487.91 79.73 512.10 50.07 538.38 60.90
  Q 548.56 65.09 553.48 76.09
  A 1.00 1.00 0.0 0 1 552.57 77.50
  L 540.82 77.50
  A 1.01 1.00 -19.3 0 1 540.04 77.13
  C 525.21 58.70 499.03 83.64 516.88 99.27
  C 524.61 106.04 534.35 103.90 540.97 95.87
  A 1.00 1.00 0.0 0 1 541.74 95.51
  L 553.10 95.49
  A 1.00 1.00 0.0 0 1 554.03 96.86
  Q 550.28 106.21 541.66 111.42
  C 528.98 119.09 512.47 115.33 504.11 103.21
  Z"
/>
<path fill="#ca8836" d="
  M 612.14 110.30
  C 583.56 90.61 608.26 47.15 639.89 61.25
  Q 649.46 65.52 654.09 76.10
  A 1.00 1.00 0.0 0 1 653.17 77.50
  L 641.57 77.50
  A 1.01 1.00 -19.3 0 1 640.79 77.13
  C 636.20 71.50 628.92 69.29 622.12 71.85
  C 615.09 74.49 609.91 83.20 612.11 90.79
  C 616.04 104.37 633.38 108.06 641.35 95.95
  A 1.01 0.99 -72.8 0 1 642.18 95.50
  L 653.77 95.50
  A 1.00 1.00 0.0 0 1 654.70 96.88
  Q 648.39 112.17 632.56 115.09
  Q 621.94 117.05 612.14 110.30
  Z"
/>
<path fill="#ca8836" d="
  M 726.02 87.01
  A 28.37 28.37 0.0 0 1 697.65 115.38
  A 28.37 28.37 0.0 0 1 669.28 87.01
  A 28.37 28.37 0.0 0 1 697.65 58.64
  A 28.37 28.37 0.0 0 1 726.02 87.01
  Z
  M 713.71 87.00
  A 16.08 16.08 0.0 0 0 697.63 70.92
  A 16.08 16.08 0.0 0 0 681.55 87.00
  A 16.08 16.08 0.0 0 0 697.63 103.08
  A 16.08 16.08 0.0 0 0 713.71 87.00
  Z"
/>
<rect fill="#c74a29" x="469.49" y="59.46" width="12.02" height="55.06" rx="0.26"/>
<path fill="#c62b25" d="
  M 320.23 78.64
  L 333.01 59.65
  A 0.34 0.34 0.0 0 1 333.29 59.50
  L 344.57 59.50
  A 0.34 0.34 0.0 0 1 344.85 60.03
  L 326.04 88.31
  A 0.34 0.34 0.0 0 0 325.98 88.50
  L 326.04 114.16
  A 0.34 0.34 0.0 0 1 325.70 114.50
  L 314.35 114.50
  A 0.34 0.34 0.0 0 1 314.01 114.16
  L 313.98 88.43
  A 0.34 0.34 0.0 0 0 313.92 88.24
  L 295.14 60.03
  A 0.34 0.34 0.0 0 1 295.42 59.50
  L 306.76 59.50
  A 0.34 0.34 0.0 0 1 307.04 59.65
  L 319.67 78.64
  A 0.34 0.34 0.0 0 0 320.23 78.64
  Z"
/>
<path fill="#c74a29" d="
  M 437.99 70.41
  L 438.02 114.09
  A 0.41 0.41 0.0 0 1 437.61 114.50
  L 426.41 114.50
  A 0.41 0.41 0.0 0 1 426.00 114.09
  L 426.00 70.41
  A 0.41 0.41 0.0 0 0 425.59 70.00
  L 410.16 70.00
  A 0.41 0.41 0.0 0 1 409.75 69.59
  L 409.75 59.91
  A 0.41 0.41 0.0 0 1 410.16 59.50
  L 453.84 59.50
  A 0.41 0.41 0.0 0 1 454.25 59.91
  L 454.25 69.59
  A 0.41 0.41 0.0 0 1 453.84 70.00
  L 438.40 70.00
  A 0.41 0.41 0.0 0 0 437.99 70.41
  Z"
/>
<path fill="#cc9b3a" d="
  M 743.24 60.52
  A 1.00 1.00 0.0 0 1 744.23 59.52
  Q 751.07 59.45 758.03 59.50
  Q 770.17 59.59 772.44 59.97
  C 800.41 64.67 802.95 105.05 775.45 113.24
  Q 770.94 114.58 761.90 114.53
  Q 753.07 114.47 744.24 114.46
  A 1.00 1.00 0.0 0 1 743.24 113.46
  L 743.24 60.52
  Z
  M 767.53 103.85
  C 786.29 102.66 787.76 75.69 770.24 70.29
  Q 767.50 69.45 756.19 70.11
  A 1.00 0.99 88.5 0 0 755.25 71.11
  L 755.25 102.90
  A 1.01 1.00 1.8 0 0 756.20 103.90
  Q 762.01 104.20 767.53 103.85
  Z"
/>
<path fill="#cc9b3a" d="
  M 824.63 81.75
  L 845.16 81.75
  A 0.34 0.34 0.0 0 1 845.50 82.09
  L 845.50 92.16
  A 0.34 0.34 0.0 0 1 845.16 92.50
  L 824.63 92.50
  A 0.34 0.34 0.0 0 0 824.29 92.84
  L 824.17 103.66
  A 0.34 0.34 0.0 0 0 824.51 104.00
  L 849.41 104.00
  A 0.34 0.34 0.0 0 1 849.75 104.34
  L 849.75 114.16
  A 0.34 0.34 0.0 0 1 849.41 114.50
  L 812.34 114.50
  A 0.34 0.34 0.0 0 1 812.00 114.16
  L 812.00 59.84
  A 0.34 0.34 0.0 0 1 812.34 59.50
  L 849.38 59.50
  A 0.34 0.34 0.0 0 1 849.72 59.84
  L 849.81 69.66
  A 0.34 0.34 0.0 0 1 849.47 70.00
  L 824.51 70.00
  A 0.34 0.34 0.0 0 0 824.17 70.34
  L 824.29 81.41
  A 0.34 0.34 0.0 0 0 824.63 81.75
  Z"
/>
<path fill="#c62b25" d="
  M 268.25 96.33
  Q 268.25 93.90 266.81 95.86
  L 253.94 113.32
  A 1.00 1.00 0.0 0 1 252.33 113.32
  L 239.44 95.87
  Q 238.00 93.92 238.00 96.35
  L 238.00 113.50
  A 1.00 1.00 0.0 0 1 237.00 114.50
  L 226.75 114.50
  A 1.00 1.00 0.0 0 1 225.75 113.50
  L 225.75 61.91
  Q 225.75 59.48 227.19 61.44
  L 252.28 95.40
  A 1.00 1.00 0.0 0 0 253.88 95.40
  Q 266.89 77.94 279.65 60.61
  C 280.08 60.02 280.68 60.09 280.50 61.00
  C 279.92 63.82 280.52 67.07 280.51 69.08
  Q 280.40 88.96 280.19 108.84
  Q 280.19 109.19 280.44 111.63
  Q 280.54 112.65 280.38 113.66
  A 1.00 0.99 4.3 0 1 279.39 114.50
  L 269.25 114.50
  A 1.00 1.00 0.0 0 1 268.25 113.50
  L 268.25 96.33
  Z"
/>
<path fill="#0c0e0d" d="
  M 770.24 70.29
  C 787.76 75.69 786.29 102.66 767.53 103.85
  Q 762.01 104.20 756.20 103.90
  A 1.01 1.00 1.8 0 1 755.25 102.90
  L 755.25 71.11
  A 1.00 0.99 88.5 0 1 756.19 70.11
  Q 767.50 69.45 770.24 70.29
  Z"
/>
<path fill="#0c0e0d" d="
  M 24.94 71.44
  Q 25.27 70.93 25.41 71.23
  A 0.28 0.26 43.2 0 1 25.42 71.39
  L 23.48 76.90
  A 1.03 0.98 42.0 0 0 23.54 77.69
  L 25.38 81.22
  A 1.00 0.98 -39.7 0 1 25.27 82.30
  L 23.92 84.00
  Q 22.52 85.77 22.15 83.54
  L 21.25 78.04
  A 1.04 0.97 -38.0 0 1 21.35 77.40
  Q 23.02 74.34 24.94 71.44
  Z"
/>
<circle fill="#0c0e0d" cx="697.63" cy="87.00" r="16.08"/>
<path fill="#0c0e0d" d="
  M 165.66 77.38
  Q 165.60 76.22 165.42 75.07
  Q 164.87 71.56 166.61 74.66
  L 168.24 77.58
  A 1.00 1.00 0.0 0 1 168.35 78.26
  L 167.19 83.93
  Q 166.80 85.83 165.74 84.21
  L 164.46 82.28
  A 1.01 1.01 0.0 0 1 164.38 81.32
  C 164.96 80.00 165.74 78.87 165.66 77.38
  Z"
/>
<path fill="#0c0e0d" d="
  M 59.19 99.56
  Q 53.76 94.10 50.64 88.61
  A 1.00 1.00 0.0 0 1 51.49 87.11
  Q 62.46 86.87 73.26 87.03
  C 75.85 87.07 78.92 85.39 80.42 84.15
  Q 83.70 81.41 84.61 77.29
  Q 84.92 75.88 85.95 76.89
  Q 89.51 80.40 94.38 81.90
  A 0.97 0.96 45.5 0 0 94.94 81.91
  Q 99.72 80.55 103.23 77.11
  A 1.00 1.00 0.0 0 1 104.88 77.53
  Q 106.64 83.11 111.52 85.75
  Q 113.82 86.99 117.72 87.00
  Q 127.98 87.00 138.22 87.00
  Q 139.99 87.00 139.08 88.52
  Q 133.40 97.99 124.60 104.67
  A 1.00 1.00 0.0 0 1 123.10 104.31
  C 115.91 89.83 98.42 83.56 83.02 89.24
  Q 72.51 93.12 66.44 104.13
  A 1.00 1.00 0.0 0 1 65.03 104.49
  Q 62.43 102.83 59.19 99.56
  Z"
/>
<path fill="#0c0e0d" d="
  M 32.45 80.85
  Q 35.84 76.33 33.84 81.62
  Q 32.86 84.21 31.78 86.88
  C 29.61 92.22 30.74 102.10 30.74 108.02
  A 1.00 1.00 0.0 0 1 29.97 108.99
  L 26.74 109.73
  A 1.00 0.99 80.2 0 1 25.53 108.87
  L 23.67 93.04
  A 0.99 0.97 -30.7 0 1 23.86 92.33
  L 32.45 80.85
  Z"
/>
<path fill="#0c0e0d" d="
  M 159.26 108.85
  A 0.99 0.99 0.0 0 1 158.51 107.89
  C 158.49 102.07 159.69 91.48 157.53 86.25
  Q 156.61 84.01 155.78 81.73
  Q 153.96 76.72 157.17 80.98
  L 165.35 91.81
  A 1.03 1.01 -63.7 0 1 165.55 92.42
  Q 165.51 100.77 164.02 108.98
  A 1.00 1.00 0.0 0 1 162.78 109.77
  L 159.26 108.85
  Z"
/>
<path fill="#c74a29" d="
  M 76.71 80.75
  Q 75.73 82.48 73.75 81.96
  Q 75.01 80.87 76.71 80.75
  Z"
/>
<path fill="#c74a29" d="
  M 18.04 88.50
  L 18.71 93.50
  Q 17.61 91.14 18.04 88.50
  Z"
/>
<path fill="#0c0e0d" d="
  M 46.41 91.58
  C 51.65 99.88 56.70 104.30 63.38 109.76
  A 1.01 1.01 0.0 0 1 63.72 110.75
  Q 59.82 128.78 72.52 141.69
  A 1.00 1.00 0.0 0 1 72.52 143.09
  Q 69.59 146.07 70.30 150.38
  A 1.01 1.01 0.0 0 1 69.79 151.42
  Q 64.89 154.08 65.41 159.66
  A 1.00 1.00 0.0 0 1 64.41 160.75
  L 61.24 160.75
  A 1.00 1.00 0.0 0 1 60.24 159.75
  Q 60.27 148.35 60.23 137.01
  C 60.22 134.36 58.79 132.53 56.10 134.46
  A 0.99 0.97 -9.1 0 0 55.73 134.96
  L 52.67 144.09
  Q 51.62 147.23 51.12 143.96
  L 47.90 122.86
  A 1.04 1.03 13.3 0 0 47.48 122.19
  L 41.65 118.15
  A 1.01 0.99 -65.9 0 1 41.25 117.08
  L 43.45 108.41
  A 1.00 1.00 0.0 0 0 42.48 107.16
  C 38.70 107.16 40.76 104.13 42.08 102.91
  C 45.37 99.84 47.91 97.34 45.67 92.56
  C 45.47 92.14 45.34 91.16 46.11 91.35
  A 0.53 0.48 79.5 0 1 46.41 91.58
  Z"
/>
<path fill="#0c0e0d" d="
  M 139.22 139.89
  Q 139.03 142.24 138.53 144.57
  Q 137.92 147.39 136.99 144.66
  L 133.60 134.71
  A 1.00 1.00 0.0 0 0 133.15 134.16
  Q 131.18 133.04 129.56 134.58
  A 1.02 1.01 -22.1 0 0 129.25 135.31
  L 129.25 159.75
  A 1.00 1.00 0.0 0 1 128.25 160.75
  L 125.26 160.75
  A 1.00 0.99 -87.9 0 1 124.27 159.68
  Q 124.67 154.10 119.73 151.38
  A 1.00 0.99 18.4 0 1 119.22 150.38
  Q 119.75 146.15 117.00 143.06
  A 1.00 0.99 46.5 0 1 117.03 141.70
  Q 129.66 128.83 125.52 110.74
  A 1.01 1.00 -23.9 0 1 125.93 109.69
  Q 136.38 102.58 142.93 91.75
  A 0.66 0.65 -72.9 0 1 143.50 91.44
  Q 144.24 91.46 143.94 92.16
  Q 142.55 95.41 143.60 98.47
  C 144.57 101.32 147.96 102.23 148.87 104.83
  Q 148.98 105.13 149.07 105.44
  A 0.99 0.99 0.0 0 1 148.32 106.71
  Q 146.37 107.11 146.45 109.24
  Q 146.55 112.32 148.12 117.13
  A 1.00 0.99 -26.1 0 1 147.73 118.26
  L 141.72 122.37
  A 1.01 1.00 -15.0 0 0 141.29 123.11
  C 140.77 128.86 139.70 133.81 139.22 139.89
  Z"
/>
<path fill="#0c0e0d" d="
  M 121.54 119.50
  L 121.04 125.25
  Q 118.49 134.64 110.91 140.78
  A 1.03 1.01 -63.4 0 1 110.28 141.00
  L 79.60 141.00
  A 1.03 1.01 -27.2 0 1 79.02 140.82
  Q 74.14 137.35 71.33 132.27
  Q 68.83 127.75 72.58 131.30
  Q 85.27 143.33 102.54 135.23
  A 0.98 0.97 -42.9 0 1 103.46 135.26
  C 110.43 139.27 117.03 131.13 112.80 124.10
  A 1.03 1.02 38.4 0 1 112.70 123.28
  Q 117.66 107.68 107.51 97.12
  Q 103.60 93.05 108.49 95.87
  Q 121.26 103.24 121.54 119.50
  Z"
/>
<path fill="#0c0e0d" d="
  M 40.89 96.94
  Q 39.52 98.85 37.54 100.14
  Q 35.99 101.15 36.00 99.30
  L 36.01 96.32
  A 1.02 0.97 65.7 0 1 36.23 95.69
  C 38.33 93.11 43.33 93.53 40.89 96.94
  Z"
/>
<path fill="#0c0e0d" d="
  M 153.24 95.37
  Q 153.36 95.45 153.48 95.56
  A 0.78 0.77 -69.0 0 1 153.75 96.17
  L 153.71 99.79
  Q 153.68 101.43 152.40 100.40
  L 148.00 96.84
  A 1.00 0.99 32.9 0 1 147.73 95.61
  Q 149.56 92.01 152.49 94.85
  Q 152.62 94.99 153.24 95.37
  Z"
/>
<path fill="#0c0e0d" d="
  M 83.17 96.90
  A 1.00 1.00 0.0 0 1 83.78 95.35
  Q 100.12 91.79 107.74 106.03
  Q 111.23 112.54 108.33 120.69
  A 1.01 1.00 6.5 0 1 107.49 121.35
  Q 99.30 122.17 99.55 130.57
  A 1.02 1.00 -12.3 0 1 98.92 131.53
  C 91.21 134.65 83.34 134.26 77.00 128.66
  Q 68.67 121.29 70.94 107.76
  Q 71.23 106.05 72.57 107.16
  C 77.23 111.03 84.70 108.34 84.84 102.11
  Q 84.90 99.41 83.17 96.90
  Z"
/>
<ellipse fill="#0c0e0d" cx="0.00" cy="0.00" transform="translate(77.59,101.74) rotate(-5.2)" rx="2.44" ry="2.23"/>
<path fill="#c74a29" d="
  M 169.46 104.25
  C 169.73 106.53 167.82 111.32 171.00 111.46
  Q 170.26 111.56 169.55 111.41
  A 0.99 0.98 -85.9 0 1 168.76 110.49
  Q 168.57 107.32 169.46 104.25
  Z"
/>
<path fill="#0c0e0d" d="
  M 36.46 120.54
  L 42.98 125.16
  A 1.01 0.97 14.2 0 1 43.40 125.83
  L 47.73 156.08
  A 1.00 0.99 71.7 0 1 47.22 157.10
  Q 44.57 158.52 41.93 159.76
  C 38.94 161.17 36.41 160.85 33.25 160.64
  A 1.00 0.99 -8.0 0 1 32.37 159.98
  L 21.70 129.93
  A 1.01 1.00 -32.7 0 1 21.93 128.89
  L 27.98 122.72
  Q 29.38 121.29 27.66 119.58
  L 24.79 116.71
  Q 23.49 115.41 25.29 115.03
  L 35.59 112.82
  A 1.01 1.00 -87.7 0 1 36.76 114.09
  Q 35.94 116.82 36.04 119.76
  A 1.01 0.98 -74.2 0 0 36.46 120.54
  Z"
/>
<path fill="#0c0e0d" d="
  M 143.29 146.25
  Q 144.54 143.36 143.96 140.25
  L 146.24 125.60
  A 1.00 0.99 78.3 0 1 146.68 124.92
  L 153.52 120.35
  A 1.01 1.00 -24.3 0 0 153.94 119.26
  L 152.53 113.99
  A 1.00 1.00 0.0 0 1 153.67 112.75
  Q 156.28 113.22 158.77 113.96
  Q 159.66 114.22 162.28 114.42
  Q 163.50 114.51 164.61 115.02
  A 1.00 1.00 0.0 0 1 164.92 116.63
  L 161.69 119.94
  Q 160.18 121.50 161.71 123.04
  L 167.59 128.98
  A 1.01 1.00 32.7 0 1 167.82 130.02
  L 157.08 160.09
  A 1.00 0.99 -79.7 0 1 156.13 160.75
  C 153.12 160.72 150.59 161.21 147.75 159.86
  Q 145.01 158.55 142.33 157.12
  A 0.99 0.99 0.0 0 1 141.81 156.09
  L 143.29 146.25
  Z"
/>
<path fill="#c74a29" d="
  M 121.54 119.50
  Q 122.04 122.44 121.04 125.25
  L 121.54 119.50
  Z"
/>
<circle fill="#0c0e0d" cx="107.07" cy="128.71" r="2.38"/>
<path fill="#c74a29" d="
  M 143.96 140.25
  Q 144.54 143.36 143.29 146.25
  Q 142.99 143.18 143.96 140.25
  Z"
/>
<path fill="#0c0e0d" d="
  M 110.98 146.16
  C 113.62 146.20 115.00 147.29 114.28 150.00
  A 0.99 0.99 0.0 0 1 113.32 150.75
  L 76.10 150.99
  A 0.99 0.99 0.0 0 1 75.12 150.19
  Q 74.27 146.05 78.99 146.03
  Q 99.99 145.96 110.98 146.16
  Z"
/>
<path fill="#0c0e0d" d="
  M 118.05 156.05
  Q 119.64 157.66 119.25 159.92
  A 1.00 0.99 -85.2 0 1 118.27 160.75
  L 71.27 160.75
  A 1.00 1.00 0.0 0 1 70.31 160.03
  C 69.52 157.31 70.83 155.76 73.65 155.76
  Q 95.53 155.74 117.34 155.75
  A 0.99 0.98 -21.8 0 1 118.05 156.05
  Z"
/>
</svg>
